<?xml version="1.0" encoding="utf-8"?>
<!-- Generator: Adobe Illustrator 16.0.0, SVG Export Plug-In . SVG Version: 6.00 Build 0)  -->
<!DOCTYPE svg PUBLIC "-//W3C//DTD SVG 1.1//EN" "http://www.w3.org/Graphics/SVG/1.1/DTD/svg11.dtd">
<svg version="1.1" id="Capa_1" xmlns="http://www.w3.org/2000/svg" xmlns:xlink="http://www.w3.org/1999/xlink" x="0px" y="0px"
	 width="510px" height="510px" viewBox="0 0 510 510" enable-background="new 0 0 510 510" xml:space="preserve">
<circle fill="#FFFFFF" cx="256.75" cy="255.75" r="251.25"/>
<g>
	<g>
		<path fill="#1CDAA5" d="M366.677,253.282c-6.381,0-11.553,5.172-11.553,11.552v115.512c0,6.38-5.171,11.551-11.55,11.551H135.653
			c-6.38,0-11.551-5.171-11.551-11.551V149.322c0-6.379,5.171-11.551,11.551-11.551h138.614c6.379,0,11.552-5.171,11.552-11.552
			c0-6.379-5.173-11.551-11.552-11.551H135.653c-19.138,0-34.653,15.515-34.653,34.654v231.024
			c0,19.139,15.515,34.653,34.653,34.653h207.921c19.14,0,34.654-15.515,34.654-34.653V264.834
			C378.229,258.454,373.058,253.282,366.677,253.282z"/>
	</g>
</g>
<g>
	<g>
		<path fill="#1CDAA5" d="M411.488,104.519c-8.293-8.294-19.543-12.955-31.272-12.953c-11.736-0.034-22.999,4.634-31.27,12.96
			l-152.152,152.14c-1.262,1.272-2.215,2.818-2.784,4.518l-23.103,69.308c-2.016,6.053,1.257,12.593,7.309,14.608
			c1.174,0.393,2.404,0.592,3.642,0.593c1.24-0.003,2.472-0.2,3.65-0.589l69.308-23.102c1.7-0.569,3.248-1.526,4.516-2.796
			l152.151-152.153C428.752,149.786,428.755,121.789,411.488,104.519z M395.15,150.731L244.985,300.896l-44.865,14.981
			l14.935-44.807l150.224-150.165c8.259-8.242,21.636-8.229,29.878,0.03c3.938,3.945,6.156,9.286,6.173,14.86
			C401.345,141.399,399.12,146.775,395.15,150.731z"/>
	</g>
</g>
</svg>
