<?xml version="1.0" encoding="utf-8"?>
<!-- Generator: Adobe Illustrator 16.0.0, SVG Export Plug-In . SVG Version: 6.00 Build 0)  -->
<!DOCTYPE svg PUBLIC "-//W3C//DTD SVG 1.1//EN" "http://www.w3.org/Graphics/SVG/1.1/DTD/svg11.dtd">
<svg version="1.1" id="Capa_1" xmlns="http://www.w3.org/2000/svg" xmlns:xlink="http://www.w3.org/1999/xlink" x="0px" y="0px"
	 width="510px" height="510px" viewBox="0 0 510 510" enable-background="new 0 0 510 510" xml:space="preserve">
<circle fill="#026054" cx="254.838" cy="255.75" r="251.25"/>
<g>
	<path fill="#7ED8F6" d="M418,407.822v10c0,5.066-4.096,9.178-9.139,9.178H315.88c-5.051,0-9.142-4.111-9.142-9.178v-10
		c0-26.996,21.789-48.879,48.673-48.879h13.91C396.204,358.943,418,380.826,418,407.822z"/>
	<ellipse fill="#FFBFAB" cx="362.369" cy="326.096" rx="32.71" ry="32.845"/>
	<path fill="#59C36A" d="M310.815,215.563v10.001c0,5.071-4.091,9.177-9.141,9.177h-92.981c-5.051,0-9.14-4.105-9.14-9.177v-10.001
		c0-26.995,21.795-48.88,48.679-48.88h13.903C289.019,166.683,310.815,188.568,310.815,215.563z"/>
	<path fill="#FFBFAB" d="M287.894,133.838c0,18.143-14.648,32.844-32.709,32.844c-18.063,0-32.71-14.701-32.71-32.844
		c0-18.137,14.648-32.838,32.71-32.838C273.247,101,287.894,115.701,287.894,133.838L287.894,133.838z"/>
	<path fill="#FF4D4D" d="M203.262,407.822v10c0,5.066-4.09,9.178-9.14,9.178H101.14c-5.05,0-9.14-4.111-9.14-9.178v-10
		c0-26.996,21.795-48.879,48.679-48.879h13.909C181.473,358.943,203.262,380.826,203.262,407.822z"/>
	<ellipse fill="#FFBFAB" cx="147.631" cy="326.096" rx="32.71" ry="32.845"/>
	<g>
		<path fill="#DFE7F4" d="M299.679,351.719c-14.227,4.694-29.192,7.096-44.494,7.153h-0.521c-14.939,0-29.586-2.249-43.54-6.681
			c-5.024-1.596-7.811-6.974-6.22-12.018c1.59-5.046,6.945-7.844,11.969-6.246c12.091,3.838,24.811,5.786,37.793,5.786
			c0.171,0,0.347,0,0.52-0.006c13.274-0.046,26.234-2.128,38.542-6.188c5.005-1.655,10.398,1.084,12.039,6.11
			C307.412,344.655,304.685,350.073,299.679,351.719L299.679,351.719z"/>
	</g>
	<g>
		<path fill="#DFE7F4" d="M134.798,260.506c-0.566,0-1.141-0.05-1.719-0.156c-5.183-0.946-8.621-5.936-7.677-11.14
			c2.712-14.961,7.833-29.476,15.221-43.138c7.129-13.184,16.086-25.04,26.622-35.238c3.793-3.67,9.833-3.56,13.489,0.25
			c3.657,3.809,3.546,9.874-0.248,13.545c-9.129,8.835-16.899,19.127-23.095,30.585c-6.42,11.875-10.868,24.466-13.217,37.427
			C143.335,257.265,139.32,260.506,134.798,260.506z"/>
	</g>
	<g>
		<path fill="#C7CFE1" d="M375.569,260.506c-4.521,0-8.537-3.24-9.374-7.865c-2.349-12.961-6.797-25.552-13.217-37.427
			c-6.196-11.458-13.968-21.75-23.096-30.585c-3.793-3.671-3.904-9.736-0.247-13.545c3.655-3.809,9.694-3.921,13.489-0.25
			c10.535,10.198,19.492,22.054,26.62,35.238c7.388,13.662,12.51,28.177,15.222,43.138c0.943,5.204-2.494,10.193-7.678,11.14
			C376.712,260.454,376.137,260.506,375.569,260.506z"/>
	</g>
	<path fill="#F89580" d="M287.894,133.838c0,18.143-14.648,32.844-32.709,32.844V101C273.247,101,287.894,115.701,287.894,133.838
		L287.894,133.838z"/>
	<path fill="#00A66C" d="M310.815,215.563v10.001c0,5.071-4.091,9.177-9.141,9.177h-46.49v-68.059h6.952
		C289.019,166.683,310.815,188.568,310.815,215.563z"/>
	<path fill="#C7CFE1" d="M299.679,351.719c-14.227,4.694-29.192,7.096-44.494,7.153v-19.166c13.272-0.044,26.234-2.126,38.542-6.187
		c5.005-1.655,10.398,1.083,12.039,6.11C307.412,344.655,304.685,350.073,299.679,351.719z"/>
	<path fill="#F89580" d="M180.341,326.096c0,18.138-14.647,32.846-32.71,32.846v-65.69
		C165.693,293.251,180.341,307.961,180.341,326.096z"/>
	<path fill="#CD0000" d="M203.262,407.822v10c0,5.066-4.09,9.178-9.14,9.178h-46.491v-68.057h6.958
		C181.473,358.943,203.262,380.826,203.262,407.822z"/>
	<path fill="#6AA9FF" d="M418,407.822v10c0,5.066-4.096,9.178-9.139,9.178h-46.492v-68.057h6.952
		C396.204,358.943,418,380.826,418,407.822z"/>
	<path fill="#F89580" d="M395.079,326.096c0,18.138-14.647,32.846-32.71,32.846v-65.69
		C380.432,293.251,395.079,307.961,395.079,326.096z"/>
</g>
</svg>
