<?xml version="1.0" encoding="utf-8"?>
<!-- Generator: Adobe Illustrator 16.0.0, SVG Export Plug-In . SVG Version: 6.00 Build 0)  -->
<!DOCTYPE svg PUBLIC "-//W3C//DTD SVG 1.1//EN" "http://www.w3.org/Graphics/SVG/1.1/DTD/svg11.dtd">
<svg version="1.1" id="Layer_1" xmlns:svgjs="http://svgjs.com/svgjs"
	 xmlns="http://www.w3.org/2000/svg" xmlns:xlink="http://www.w3.org/1999/xlink" x="0px" y="0px" width="512px" height="512px"
	 viewBox="0 0 512 512" enable-background="new 0 0 512 512" xml:space="preserve">
<g>
	<path fill="#B8B8B8" d="M498.195,222.695c-0.012-0.012-0.023-0.023-0.035-0.035L289.305,13.813C280.402,4.906,268.566,0,255.977,0
		s-24.426,4.902-33.332,13.809L13.898,222.551c-0.07,0.07-0.141,0.145-0.211,0.215c-18.281,18.387-18.25,48.219,0.09,66.559
		c8.379,8.383,19.445,13.238,31.277,13.746c0.48,0.047,0.965,0.07,1.453,0.07h8.324V456.84C54.832,487.254,79.578,512,110,512
		h81.711c8.281,0,15-6.715,15-15V376.5c0-13.879,11.289-25.168,25.168-25.168h48.195c13.879,0,25.168,11.289,25.168,25.168V497
		c0,8.285,6.715,15,15,15h81.711c30.422,0,55.168-24.746,55.168-55.16V303.141h7.719c12.586,0,24.422-4.902,33.332-13.809
		C516.531,270.961,516.539,241.078,498.195,222.695z"/>
</g>
</svg>
