<?xml version="1.0" encoding="utf-8"?>
<!-- Generator: Adobe Illustrator 16.0.0, SVG Export Plug-In . SVG Version: 6.00 Build 0)  -->
<!DOCTYPE svg PUBLIC "-//W3C//DTD SVG 1.1//EN" "http://www.w3.org/Graphics/SVG/1.1/DTD/svg11.dtd">
<svg version="1.1" id="Capa_1" xmlns="http://www.w3.org/2000/svg" xmlns:xlink="http://www.w3.org/1999/xlink" x="0px" y="0px"
	 width="510px" height="510px" viewBox="0 0 510 510" enable-background="new 0 0 510 510" xml:space="preserve">
<circle fill="#19DFB2" cx="256.25" cy="255.75" r="251.25"/>
<g>
	<g id="surface1">
		<path fill="#FFFFFF" d="M313.518,283.489c35.65-50.343,23.729-120.053-26.615-155.697
			c-50.345-35.643-120.056-23.728-155.699,26.624c-35.643,50.343-23.728,120.046,26.625,155.688
			c35.932,25.439,83.44,27.398,121.342,5.018l82.35,81.855c8.893,9.359,23.686,9.734,33.045,0.844
			c9.359-8.886,9.734-23.678,0.854-33.038c-0.281-0.298-0.555-0.57-0.854-0.853L313.518,283.489z M222.291,291.121
			c-39.782,0.008-72.035-32.221-72.062-72.002c-0.008-39.782,32.22-72.036,72.01-72.053c39.733-0.019,71.972,32.16,72.046,71.891
			c0.068,39.791-32.141,72.096-71.943,72.165C222.326,291.121,222.317,291.121,222.291,291.121z"/>
	</g>
</g>
</svg>
